<?xml version="1.0" encoding="utf-8"?>
<!-- Generator: Adobe Illustrator 24.1.2, SVG Export Plug-In . SVG Version: 6.00 Build 0)  -->
<svg version="1.1" id="Layer_1" xmlns="http://www.w3.org/2000/svg" xmlns:xlink="http://www.w3.org/1999/xlink" x="0px" y="0px"
	 viewBox="0 0 312.2 312.2" style="enable-background:new 0 0 312.2 312.2;" xml:space="preserve">
<style type="text/css">
	.st0{fill:#FFFFFF;}
</style>
<path class="st0" d="M166.3,25.9c-1.7-3.4-6.3-6.3-10.2-6.3s-8.5,2.8-10.2,6.3l-35.3,84.7l-84.7,35.3c-3.4,1.7-6.3,6.3-6.3,10.2
	c0,4,2.8,8.5,6.3,10.2l84.7,35.3l35.3,84.7c1.7,3.4,6.3,6.3,10.2,6.3s8.5-2.8,10.2-6.3l35.3-84.7l84.7-35.3
	c3.4-1.7,6.3-6.3,6.3-10.2c0-4-2.8-8.5-6.3-10.2l-84.7-35.3L166.3,25.9L166.3,25.9z"/>
</svg>
